<svg width="21" height="20" viewBox="0 0 21 20" fill="none" xmlns="http://www.w3.org/2000/svg">
<path d="M10.4901 4.16657C10.2689 4.16657 10.057 4.25428 9.90081 4.41064C9.74445 4.56684 9.65674 4.77876 9.65674 4.9999V9.9997C9.65674 10.2207 9.74445 10.4326 9.90081 10.589C10.057 10.7452 10.2689 10.833 10.4901 10.833H14.6566C14.9543 10.833 15.2294 10.6741 15.3782 10.4163C15.5271 10.1585 15.5271 9.84075 15.3782 9.58297C15.2294 9.32517 14.9543 9.1664 14.6566 9.1664H11.3233V4.99983C11.3233 4.77869 11.2355 4.56676 11.0793 4.41057C10.9229 4.25421 10.711 4.1665 10.49 4.1665L10.4901 4.16657Z" fill="#747474"/>
<path d="M10.4901 3.16617e-06C9.07071 -0.00112755 7.6675 0.300607 6.37415 0.885171C5.0808 1.46959 3.92697 2.32341 2.99011 3.38949V1.66663C2.99011 1.36877 2.83117 1.09371 2.57338 0.944924C2.31557 0.795993 1.99785 0.795993 1.74006 0.944924C1.48226 1.09369 1.32349 1.36878 1.32349 1.66663V5.8332C1.32349 6.05417 1.4112 6.2661 1.56756 6.42245C1.72375 6.57865 1.93568 6.66652 2.15681 6.66652H6.32338C6.62108 6.66652 6.89618 6.50758 7.04492 6.24978C7.19385 5.99198 7.19385 5.67425 7.04492 5.41647C6.89615 5.15867 6.62107 4.9999 6.32338 4.9999H3.83374C5.02098 3.41676 6.73284 2.308 8.66275 1.87158C10.5929 1.43528 12.6152 1.70004 14.3676 2.61834C16.1204 3.5368 17.4891 5.04886 18.2289 6.88415C18.9689 8.71945 19.0316 10.758 18.4058 12.6353C17.78 14.5125 16.5067 16.1058 14.8137 17.1302C13.1208 18.1546 11.1185 18.5429 9.16514 18.226C7.21195 17.9089 5.43529 16.9073 4.15294 15.4002C2.87072 13.8932 2.16663 11.9791 2.16663 10.0001C2.16663 9.70229 2.00785 9.42722 1.75005 9.27844C1.49209 9.12951 1.17452 9.12951 0.916574 9.27844C0.658773 9.42721 0.5 9.70229 0.5 10.0001C0.5 11.9784 1.08669 13.9121 2.18602 15.5569C3.28522 17.2016 4.84769 18.4834 6.67554 19.2398C8.5034 19.9964 10.5146 20.1938 12.4548 19.8071C14.3948 19.4204 16.1766 18.4671 17.5749 17.0674C18.973 15.6679 19.9245 13.8851 20.3093 11.9448C20.6939 10.0042 20.4944 7.99328 19.7359 6.16634C18.9775 4.33927 17.6942 2.77809 16.0482 1.68054C14.4023 0.582946 12.468 -0.00180352 10.4897 0.000305402L10.4901 3.16617e-06Z" fill="#747474"/>
</svg>
